{
	"asset":{
		"generator":"Khronos glTF Blender I/O v4.5.47",
		"version":"2.0"
	},
	"scene":0,
	"scenes":[
		{
			"name":"Scene",
			"nodes":[
				0
			]
		}
	],
	"nodes":[
		{
			"mesh":0,
			"name":"kombisroub_M10x200",
			"scale":[
				0.30000001192092896,
				0.30000001192092896,
				0.30000001192092896
			]
		}
	],
	"materials":[
		{
			"doubleSided":true,
			"name":"Material.002",
			"pbrMetallicRoughness":{
				"baseColorTexture":{
					"index":0
				},
				"roughnessFactor":0.07999999821186066
			}
		}
	],
	"meshes":[
		{
			"name":"kombisroub_M10x200",
			"primitives":[
				{
					"attributes":{
						"POSITION":0,
						"NORMAL":1
					},
					"indices":2,
					"material":0
				}
			]
		}
	],
	"textures":[
		{
			"sampler":0,
			"source":0
		}
	],
	"images":[
		{
			"mimeType":"image/png",
			"name":"metal_color",
			"uri":"metal_color.png"
		}
	],
	"accessors":[
		{
			"bufferView":0,
			"componentType":5126,
			"count":105556,
			"max":[
				62.13310241699219,
				100,
				16.777002334594727
			],
			"min":[
				-12.866898536682129,
				-100,
				-8.222997665405273
			],
			"type":"VEC3"
		},
		{
			"bufferView":1,
			"componentType":5126,
			"count":105556,
			"type":"VEC3"
		},
		{
			"bufferView":2,
			"componentType":5125,
			"count":110136,
			"type":"SCALAR"
		}
	],
	"bufferViews":[
		{
			"buffer":0,
			"byteLength":1266672,
			"byteOffset":0,
			"target":34962
		},
		{
			"buffer":0,
			"byteLength":1266672,
			"byteOffset":1266672,
			"target":34962
		},
		{
			"buffer":0,
			"byteLength":440544,
			"byteOffset":2533344,
			"target":34963
		}
	],
	"samplers":[
		{
			"magFilter":9729,
			"minFilter":9987
		}
	],
	"buffers":[
		{
			"byteLength":2973888,
			"uri":"kombisroub.bin"
		}
	]
}
