{
	"asset":{
		"generator":"Khronos glTF Blender I/O v4.5.47",
		"version":"2.0"
	},
	"scene":0,
	"scenes":[
		{
			"name":"Scene",
			"nodes":[
				0
			]
		}
	],
	"nodes":[
		{
			"mesh":0,
			"name":"spojka_U_45x25",
			"scale":[
				0.5,
				0.5,
				0.5
			],
			"translation":[
				-11.703198432922363,
				0,
				29.290071487426758
			]
		}
	],
	"materials":[
		{
			"doubleSided":true,
			"name":"Material.002",
			"pbrMetallicRoughness":{
				"baseColorTexture":{
					"index":0
				},
				"roughnessFactor":0.07999999821186066
			}
		}
	],
	"meshes":[
		{
			"name":"spojka_U_45x25",
			"primitives":[
				{
					"attributes":{
						"POSITION":0,
						"NORMAL":1
					},
					"indices":2,
					"material":0
				}
			]
		}
	],
	"textures":[
		{
			"sampler":0,
			"source":0
		}
	],
	"images":[
		{
			"mimeType":"image/png",
			"name":"metal_color",
			"uri":"metal_color.png"
		}
	],
	"accessors":[
		{
			"bufferView":0,
			"componentType":5126,
			"count":288,
			"max":[
				45,
				25,
				0
			],
			"min":[
				0,
				0,
				-120
			],
			"type":"VEC3"
		},
		{
			"bufferView":1,
			"componentType":5126,
			"count":288,
			"type":"VEC3"
		},
		{
			"bufferView":2,
			"componentType":5123,
			"count":588,
			"type":"SCALAR"
		}
	],
	"bufferViews":[
		{
			"buffer":0,
			"byteLength":3456,
			"byteOffset":0,
			"target":34962
		},
		{
			"buffer":0,
			"byteLength":3456,
			"byteOffset":3456,
			"target":34962
		},
		{
			"buffer":0,
			"byteLength":1176,
			"byteOffset":6912,
			"target":34963
		}
	],
	"samplers":[
		{
			"magFilter":9729,
			"minFilter":9987
		}
	],
	"buffers":[
		{
			"byteLength":8088,
			"uri":"spojka_na_profil.bin"
		}
	]
}
