{
	"asset":{
		"generator":"Khronos glTF Blender I/O v4.5.47",
		"version":"2.0"
	},
	"scene":0,
	"scenes":[
		{
			"name":"Scene",
			"nodes":[
				0
			]
		}
	],
	"nodes":[
		{
			"mesh":0,
			"name":"drzak_na_falc",
			"scale":[
				0.30000001192092896,
				0.30000001192092896,
				0.30000001192092896
			],
			"translation":[
				-14.876224517822266,
				13.319263458251953,
				-1.4811294078826904
			]
		}
	],
	"materials":[
		{
			"doubleSided":true,
			"name":"Material.002",
			"pbrMetallicRoughness":{
				"baseColorTexture":{
					"index":0
				},
				"roughnessFactor":0.07999999821186066
			}
		}
	],
	"meshes":[
		{
			"name":"drzak_na_falc",
			"primitives":[
				{
					"attributes":{
						"POSITION":0,
						"NORMAL":1
					},
					"indices":2,
					"material":0
				}
			]
		}
	],
	"textures":[
		{
			"sampler":0,
			"source":0
		}
	],
	"images":[
		{
			"mimeType":"image/png",
			"name":"metal_color",
			"uri":"metal_color.png"
		}
	],
	"accessors":[
		{
			"bufferView":0,
			"componentType":5126,
			"count":398108,
			"max":[
				90,
				1.1282705862257145e-13,
				36
			],
			"min":[
				-6.821210263296962e-13,
				-40,
				-22
			],
			"type":"VEC3"
		},
		{
			"bufferView":1,
			"componentType":5126,
			"count":398108,
			"type":"VEC3"
		},
		{
			"bufferView":2,
			"componentType":5125,
			"count":404904,
			"type":"SCALAR"
		}
	],
	"bufferViews":[
		{
			"buffer":0,
			"byteLength":4777296,
			"byteOffset":0,
			"target":34962
		},
		{
			"buffer":0,
			"byteLength":4777296,
			"byteOffset":4777296,
			"target":34962
		},
		{
			"buffer":0,
			"byteLength":1619616,
			"byteOffset":9554592,
			"target":34963
		}
	],
	"samplers":[
		{
			"magFilter":9729,
			"minFilter":9987
		}
	],
	"buffers":[
		{
			"byteLength":11174208,
			"uri":"drzak_na_falc.bin"
		}
	]
}
