{
	"asset":{
		"generator":"Khronos glTF Blender I/O v4.5.47",
		"version":"2.0"
	},
	"scene":0,
	"scenes":[
		{
			"name":"Scene",
			"nodes":[
				0
			]
		}
	],
	"nodes":[
		{
			"mesh":0,
			"name":"M10_valcova_25",
			"translation":[
				0,
				6.290262222290039,
				16.609352111816406
			]
		}
	],
	"materials":[
		{
			"doubleSided":true,
			"name":"Material.002",
			"pbrMetallicRoughness":{
				"baseColorTexture":{
					"index":0
				},
				"roughnessFactor":0.07999999821186066
			}
		}
	],
	"meshes":[
		{
			"name":"M10_valcova_25",
			"primitives":[
				{
					"attributes":{
						"POSITION":0,
						"NORMAL":1
					},
					"indices":2,
					"material":0
				}
			]
		}
	],
	"textures":[
		{
			"sampler":0,
			"source":0
		}
	],
	"images":[
		{
			"mimeType":"image/png",
			"name":"metal_color",
			"uri":"metal_color.png"
		}
	],
	"accessors":[
		{
			"bufferView":0,
			"componentType":5126,
			"count":195372,
			"max":[
				6.5,
				6.498102188110352,
				2.398426465011959e-16
			],
			"min":[
				-6.5,
				-6.498102188110352,
				-33
			],
			"type":"VEC3"
		},
		{
			"bufferView":1,
			"componentType":5126,
			"count":195372,
			"type":"VEC3"
		},
		{
			"bufferView":2,
			"componentType":5125,
			"count":198348,
			"type":"SCALAR"
		}
	],
	"bufferViews":[
		{
			"buffer":0,
			"byteLength":2344464,
			"byteOffset":0,
			"target":34962
		},
		{
			"buffer":0,
			"byteLength":2344464,
			"byteOffset":2344464,
			"target":34962
		},
		{
			"buffer":0,
			"byteLength":793392,
			"byteOffset":4688928,
			"target":34963
		}
	],
	"samplers":[
		{
			"magFilter":9729,
			"minFilter":9987
		}
	],
	"buffers":[
		{
			"byteLength":5482320,
			"uri":"imbus.bin"
		}
	]
}
